<?xml version="1.0" encoding="UTF-8" standalone="no"?>
<!DOCTYPE svg PUBLIC "-//W3C//DTD SVG 1.1//EN" "http://www.w3.org/Graphics/SVG/1.1/DTD/svg11.dtd">
<svg width="100%" height="100%" viewBox="0 0 8473 6812" version="1.1" xmlns="http://www.w3.org/2000/svg" xmlns:xlink="http://www.w3.org/1999/xlink" xml:space="preserve" xmlns:serif="http://www.serif.com/" style="fill-rule:evenodd;clip-rule:evenodd;stroke-linejoin:round;stroke-miterlimit:2;">
    <g transform="matrix(1,0,0,1,-71726.6,-58368.5)">
        <g transform="matrix(0.694137,0,0,0.694137,21704.9,17506.5)">
            <g id="ByAnna_Logo_Final" transform="matrix(2.05069,0,0,2.05069,36660.2,17847.7)">
                <g id="Anna" transform="matrix(0.599061,0,0,0.599061,15420,11384.3)">
                    <path d="M3810.94,19603.1C3810.94,19603.1 3830.84,19561.7 3835.59,19551.3C3880.65,19452.6 3910.55,19374 3952.6,19294.7C3994.66,19215.4 4038.14,19143.2 4083.07,19078.2C4127.99,19013.2 4165.74,18958.7 4196.32,18914.8L4442.92,18567.8C4404.69,18562.1 4366.45,18557.3 4328.22,18553.5C4289.99,18549.7 4251.76,18547.7 4213.53,18547.7C4108.39,18547.7 4006.6,18559.2 3908.16,18582.2C3809.71,18605.1 3722.26,18640.5 3645.79,18688.2C3569.33,18736 3508.16,18796.7 3462.28,18870.3C3416.41,18943.9 3393.47,19030.4 3393.47,19129.8C3393.47,19175.7 3402.07,19220.6 3419.27,19264.6C3436.48,19308.5 3461.33,19347.7 3493.82,19382.1C3526.32,19416.6 3566.46,19444.7 3614.25,19466.7C3662.04,19488.7 3717.48,19499.7 3780.56,19499.7L3780.56,19528.4C3780.56,19595.3 3762.4,19649.3 3726.08,19690.4C3689.76,19731.5 3638.15,19752 3571.24,19752C3496.69,19752 3429.31,19733.4 3369.09,19696.1C3308.88,19658.8 3257.27,19611.1 3214.26,19552.8C3171.25,19494.4 3137.8,19429.9 3113.9,19359.2C3090.01,19288.5 3078.06,19218.7 3078.06,19149.9C3078.06,18998.9 3109.6,18867.5 3172.68,18755.6C3235.76,18643.8 3318.92,18551.6 3422.14,18478.9C3525.37,18406.3 3644.36,18351.8 3779.13,18315.5C3913.89,18279.2 4052.96,18261 4196.32,18261C4265.14,18261 4335.87,18265.3 4408.51,18273.9C4481.15,18282.5 4552.83,18296.4 4623.56,18315.5L5133.95,17595.8L5486.63,17595.8L5486.63,19602.9L5136.82,19602.9C5142.55,19593.4 5149.24,19579.5 5156.89,19561.4C5164.53,19543.2 5171.22,19523.6 5176.96,19502.6C5182.69,19481.5 5187.95,19459.1 5192.73,19435.2C5197.51,19411.3 5199.9,19387.9 5199.9,19364.9L5199.9,19233C5199.9,19164.2 5187.95,19099.7 5164.06,19039.5C5140.16,18979.3 5107.66,18924.8 5066.57,18876.1C5025.47,18827.3 4976.24,18783.8 4918.9,18745.6C4861.55,18707.4 4799.42,18674.9 4732.52,18648.1L4597.75,18837.3C4551.88,18902.3 4501.22,18971.6 4445.78,19045.2C4390.35,19118.8 4338.74,19195.8 4290.95,19276.1C4243.16,19356.3 4203.49,19438.1 4171.95,19521.2C4167.06,19534.1 4155.02,19593.6 4160.76,19603.1L3810.94,19603.1ZM4901.69,18413C4957.13,18439.7 5009.7,18468.9 5059.4,18500.4C5109.1,18532 5155.93,18567.8 5199.9,18608L5199.9,17997.2L4901.69,18413Z" style="fill:rgb(244,227,227);"/>
                    <path d="M5658.67,19602.9L5681.61,19433.8L5681.61,18424.4C5681.61,18392 5680.66,18362.8 5678.74,18337C5676.83,18311.2 5670.14,18283.9 5658.67,18255.3L5968.35,18111.9L5968.35,18398.6C6018.05,18314.5 6074.44,18250.5 6137.52,18206.5C6200.6,18162.6 6270.38,18140.6 6346.84,18140.6C6408.01,18140.6 6464.4,18153 6516.01,18177.9C6567.62,18202.7 6612.55,18240 6650.78,18289.7C6689.01,18339.4 6718.64,18402.5 6739.66,18478.9C6760.69,18555.4 6771.2,18644.3 6771.2,18745.6L6771.2,19433.8L6794.14,19602.9L6461.53,19602.9L6484.47,19433.8L6484.47,18734.1C6484.47,18623.3 6465.35,18538.7 6427.12,18480.4C6388.89,18422.1 6342.06,18392.9 6286.62,18392.9C6246.48,18392.9 6210.64,18405.8 6179.1,18431.6C6147.56,18457.4 6118.88,18491.4 6093.08,18533.4C6067.27,18575.5 6044.33,18623.3 6024.26,18676.8C6004.19,18730.3 5985.55,18783.8 5968.35,18837.3L5968.35,19433.8L5991.29,19602.9L5658.67,19602.9Z" style="fill:rgb(244,227,227);fill-rule:nonzero;"/>
                    <path d="M8147.53,20162.1C8164.74,20225.1 8186.72,20282 8213.48,20332.7C8240.24,20383.3 8272.74,20427.3 8310.97,20464.6C8349.2,20501.8 8393.17,20530.5 8442.87,20550.6C8492.57,20570.7 8549.92,20580.7 8614.91,20580.7C8658.88,20580.7 8701.41,20574 8742.51,20560.6C8783.61,20547.2 8819.93,20528.1 8851.47,20503.3C8883.01,20478.4 8907.86,20447.4 8926.02,20410.1C8944.18,20372.8 8953.26,20330.3 8953.26,20282.5C8953.26,20217.5 8929.84,20159.7 8883.01,20109C8836.18,20058.4 8766.88,20033 8675.12,20033C8604.4,20033 8524.59,20045 8435.7,20068.9C8346.81,20092.8 8250.76,20123.8 8147.53,20162.1ZM6966.19,19602.9L6989.12,19433.8L6989.12,18424.4C6989.12,18392 6988.17,18362.8 6986.26,18337C6984.35,18311.2 6977.65,18283.9 6966.19,18255.3L7275.86,18111.9L7275.86,18398.6C7325.56,18314.5 7381.95,18250.5 7445.03,18206.5C7508.11,18162.6 7577.89,18140.6 7654.35,18140.6C7715.52,18140.6 7771.91,18153 7823.52,18177.9C7875.14,18202.7 7920.06,18240 7958.29,18289.7C7996.52,18339.4 8026.15,18402.5 8047.18,18478.9C8068.2,18555.4 8078.72,18644.3 8078.72,18745.6L8078.72,19491.1C8078.72,19561.8 8080.15,19631.1 8083.02,19699C8085.89,19766.8 8091.14,19832.3 8098.79,19895.4C8207.75,19859.1 8310.97,19829.9 8408.46,19807.9C8505.95,19786 8597.71,19775 8683.73,19775C8773.57,19775 8852.9,19789.3 8921.72,19818C8990.53,19846.7 9048.84,19884.9 9096.63,19932.7C9144.42,19980.5 9180.26,20034.5 9204.15,20094.7C9228.05,20154.9 9239.99,20217.5 9239.99,20282.5C9239.99,20351.3 9226.61,20418.7 9199.85,20484.6C9173.09,20550.6 9133.42,20609.8 9080.86,20662.4C9028.29,20715 8963.77,20757.5 8887.31,20790C8810.85,20822.5 8722.92,20838.8 8623.51,20838.8C8552.78,20838.8 8480.62,20829.7 8407.03,20811.5C8333.43,20793.4 8263.66,20761.8 8197.71,20716.9C8131.76,20672 8071.07,20613.2 8015.64,20540.6C7960.2,20467.9 7914.32,20377.1 7878,20268.2C7711.7,20338.9 7536.31,20416.3 7351.84,20500.4C7167.38,20584.5 6982.91,20663.4 6798.44,20737C6613.98,20810.6 6433.81,20871.7 6257.95,20920.5C6082.09,20969.2 5918.65,20993.6 5767.63,20993.6C5637.65,20993.6 5522.95,20973 5423.55,20931.9C5324.15,20890.8 5241,20836.8 5174.09,20769.9C5107.19,20703 5056.05,20627.5 5020.69,20543.4C4985.32,20459.3 4967.64,20373.3 4967.64,20285.4C4967.64,20187.9 4983.89,20099 5016.39,20018.7C5048.88,19938.4 5094.76,19869.1 5154.02,19810.8C5213.28,19752.5 5283.05,19707.1 5363.34,19674.6C5443.62,19642.1 5532.51,19625.9 5630,19625.9C5698.82,19625.9 5767.15,19637.8 5835.02,19661.7C5902.88,19685.6 5964.05,19719.1 6018.53,19762.1C6073.01,19805.1 6117.45,19856.7 6151.86,19916.9C6186.27,19977.1 6203.47,20044.5 6203.47,20119.1C6203.47,20186 6182.92,20237.6 6141.82,20273.9C6100.72,20310.2 6046.72,20328.4 5979.82,20328.4L5951.14,20328.4C5951.14,20265.3 5940.15,20209.9 5918.17,20162.1C5896.19,20114.3 5867.99,20074.1 5833.58,20041.6C5799.17,20009.1 5759.99,19984.3 5716.02,19967.1C5672.05,19949.9 5627.13,19941.3 5581.26,19941.3C5527.73,19941.3 5480.42,19950.4 5439.32,19968.5C5398.22,19986.7 5363.81,20011 5336.1,20041.6C5308.38,20072.2 5287.35,20107.6 5273.02,20147.7C5258.68,20187.9 5251.51,20229 5251.51,20271C5251.51,20343.7 5268.24,20407.2 5301.69,20461.7C5335.14,20516.2 5378.63,20561.6 5432.15,20597.9C5485.68,20634.2 5545.41,20661.5 5611.36,20679.6C5677.31,20697.8 5742.78,20706.9 5807.78,20706.9C5937.76,20706.9 6083.04,20683 6243.61,20635.2C6404.18,20587.4 6571.92,20527.6 6746.83,20456C6921.74,20384.3 7100.47,20307.3 7283.03,20225.1C7465.58,20142.9 7642.88,20067.4 7814.92,19998.6C7807.27,19945.1 7801.54,19889.7 7797.72,19832.3C7793.89,19775 7791.98,19712.8 7791.98,19645.9L7791.98,18734.1C7791.98,18623.3 7772.87,18538.7 7734.64,18480.4C7696.4,18422.1 7649.57,18392.9 7594.14,18392.9C7553.99,18392.9 7518.15,18405.8 7486.61,18431.6C7455.07,18457.4 7426.4,18491.4 7400.59,18533.4C7374.78,18575.5 7351.84,18623.3 7331.77,18676.8C7311.7,18730.3 7293.06,18783.8 7275.86,18837.3L7275.86,19433.8L7298.8,19602.9L6966.19,19602.9Z" style="fill:rgb(244,227,227);fill-rule:nonzero;"/>
                    <path d="M9053.62,19502.6C8998.18,19546.5 8938.44,19579 8874.41,19600.1C8810.37,19621.1 8746.81,19631.6 8683.73,19631.6C8607.26,19631.6 8540.36,19618.7 8483.01,19592.9C8425.67,19567.1 8378.35,19532.7 8341.08,19489.7C8303.8,19446.7 8276.09,19397 8257.93,19340.6C8239.77,19284.2 8230.69,19226.4 8230.69,19167.1C8230.69,19104 8241.68,19041.4 8263.66,18979.3C8285.64,18917.2 8318.14,18861.7 8361.15,18813C8404.16,18764.2 8458.16,18725 8523.16,18695.4C8588.15,18665.8 8662.7,18651 8746.81,18651C8800.33,18651 8853.86,18659.1 8907.38,18675.3C8960.91,18691.6 9009.65,18715 9053.62,18745.6C9051.7,18690.2 9043.1,18642.8 9027.81,18603.7C9012.52,18564.5 8991.97,18531.5 8966.16,18504.7C8940.35,18478 8911.2,18458.4 8878.71,18446C8846.21,18433.5 8812.76,18427.3 8778.35,18427.3C8728.65,18427.3 8679.9,18442.1 8632.11,18471.8C8584.33,18501.4 8546.09,18546.8 8517.42,18608L8290.9,18433C8359.72,18329.8 8439.05,18255.3 8528.89,18209.4C8618.73,18163.5 8709.53,18140.6 8801.29,18140.6C8872.02,18140.6 8939.88,18153 9004.87,18177.9C9069.86,18202.7 9127.21,18237.6 9176.91,18282.5C9226.61,18327.4 9266.28,18381 9295.91,18443.1C9325.54,18505.2 9340.35,18573.5 9340.35,18648.1L9340.35,19433.8L9363.29,19602.9L9053.62,19602.9L9053.62,19502.6ZM9053.62,19081.1C9028.76,19031.4 8989.1,18990.3 8934.62,18957.8C8880.14,18925.3 8827.09,18909 8775.48,18909C8739.16,18909 8706.67,18915.7 8677.99,18929.1C8649.32,18942.5 8625.42,18960.6 8606.31,18983.6C8587.19,19006.5 8572.38,19032.8 8561.86,19062.4C8551.35,19092.1 8546.09,19122.2 8546.09,19152.8C8546.09,19223.5 8567.6,19279.4 8610.61,19320.5C8653.62,19361.6 8710.49,19382.1 8781.22,19382.1C8830.92,19382.1 8881.1,19367.8 8931.75,19339.1C8982.41,19310.5 9023.03,19267.4 9053.62,19210.1L9053.62,19081.1Z" style="fill:rgb(244,227,227);fill-rule:nonzero;"/>
                </g>
                <g id="By" transform="matrix(0.919689,0,0,0.919689,15543.8,4830.29)">
                    <g transform="matrix(0.668713,0,0,0.668713,3405.81,18556.5)">
                        <path d="M881.562,-1307.4C942.575,-1307.4 995.805,-1298.06 1041.25,-1279.39C1086.7,-1260.71 1124.68,-1235.81 1155.18,-1204.68C1185.69,-1173.55 1208.41,-1138.37 1223.36,-1099.15C1238.3,-1059.93 1245.77,-1019.77 1245.77,-978.684C1245.77,-935.104 1237.67,-892.769 1221.49,-851.679C1205.3,-810.589 1181.02,-773.857 1148.65,-741.484C1209.66,-692.923 1256.66,-630.977 1289.66,-555.646C1322.65,-480.315 1339.15,-401.559 1339.15,-319.38C1339.15,-255.877 1328.88,-193.931 1308.34,-133.542C1287.79,-73.152 1256.04,-18.988 1213.08,28.95C1170.12,76.888 1115.03,115.176 1047.79,143.814C980.552,172.453 900.862,186.772 808.722,186.772C722.807,186.772 649.343,174.32 588.331,149.417C527.319,124.514 477.202,91.829 437.98,51.362C398.758,10.895 369.808,-34.864 351.131,-85.915C332.454,-136.966 323.115,-188.639 323.115,-240.936C323.115,-301.948 333.076,-355.489 352.999,-401.559C372.921,-447.63 397.824,-486.54 427.707,-518.292C457.591,-550.043 490.587,-574.012 526.696,-590.199C562.805,-606.386 597.669,-614.479 631.288,-614.479C676.114,-614.479 711.289,-601.716 736.814,-576.191C762.34,-550.665 775.103,-515.49 775.103,-470.665L775.103,-451.988C766.387,-454.478 757.048,-456.034 747.087,-456.657C737.126,-457.279 727.787,-457.591 719.071,-457.591C689.188,-457.591 662.728,-451.365 639.693,-438.914C616.658,-426.462 596.736,-410.275 579.926,-390.353C563.117,-370.431 550.354,-347.395 541.638,-321.247C532.922,-295.099 528.564,-268.329 528.564,-240.936C528.564,-211.052 533.856,-181.791 544.44,-153.153C555.023,-124.514 571.521,-98.989 593.934,-76.576C616.347,-54.164 645.296,-35.798 680.783,-21.479C716.27,-7.16 758.916,0 808.722,0C848.566,0 887.788,-6.226 926.388,-18.677C964.987,-31.129 999.851,-50.428 1030.98,-76.576C1062.11,-102.724 1087.01,-136.032 1105.69,-176.499C1124.37,-216.966 1133.7,-264.593 1133.7,-319.38C1133.7,-359.224 1127.17,-398.446 1114.09,-437.046C1101.02,-475.645 1082.03,-510.198 1057.13,-540.704C1032.22,-571.21 1002.03,-595.802 966.544,-614.479C931.057,-633.156 890.279,-642.495 844.208,-642.495L627.553,-642.495C603.895,-642.495 582.416,-640.938 563.117,-637.825C543.817,-634.713 527.319,-628.798 513.622,-620.082L513.622,-1120.63L453.855,-1120.63C411.52,-1120.63 374.789,-1114.72 343.66,-1102.89C312.531,-1091.06 286.695,-1075.18 266.15,-1055.26C245.605,-1035.34 230.352,-1012.3 220.391,-986.155C210.429,-960.007 205.449,-933.236 205.449,-905.843C205.449,-875.959 211.052,-846.698 222.258,-818.06C233.465,-789.422 249.652,-763.896 270.819,-741.484C291.986,-719.071 318.134,-700.705 349.263,-686.386C380.392,-672.067 416.501,-664.907 457.591,-664.907L457.591,-646.23C457.591,-602.65 445.762,-567.475 422.104,-540.704C398.446,-513.934 364.827,-500.548 321.247,-500.548C272.687,-500.548 228.795,-511.755 189.573,-534.167C150.351,-556.58 116.732,-585.529 88.717,-621.016C60.701,-656.503 38.911,-696.347 23.346,-740.55C7.782,-784.752 0,-829.266 0,-874.092C0,-938.839 12.14,-997.672 36.42,-1050.59C60.701,-1103.51 93.697,-1148.96 135.409,-1186.93C177.122,-1224.91 225.682,-1254.48 281.091,-1275.65C336.5,-1296.82 395.333,-1307.4 457.591,-1307.4L881.562,-1307.4ZM700.394,-829.266L879.695,-829.266C933.236,-829.266 973.392,-844.208 1000.16,-874.092C1026.93,-903.975 1040.32,-936.971 1040.32,-973.081C1040.32,-1019.15 1024.44,-1055.26 992.692,-1081.41C960.94,-1107.56 923.275,-1120.63 879.695,-1120.63L700.394,-1120.63L700.394,-829.266Z" style="fill:rgb(244,227,227);"/>
                    </g>
                    <g transform="matrix(0.668713,0,0,0.668713,3405.81,18556.5)">
                        <path d="M1632.38,0L1311.14,-933.859L1546.47,-933.859C1540.24,-923.897 1537.75,-908.333 1539,-887.166C1540.24,-865.998 1544.6,-844.831 1552.07,-823.663L1731.37,-295.099L1910.67,-823.663C1916.9,-844.831 1920.95,-865.998 1922.82,-887.166C1924.68,-908.333 1922.5,-923.897 1916.28,-933.859L2129.2,-933.859L1815.42,0C1797.99,52.296 1780.56,107.082 1763.12,164.359C1745.69,221.636 1723.59,274.243 1696.82,322.181C1670.05,370.119 1636.43,409.341 1595.96,439.847C1555.5,470.353 1502.27,485.606 1436.27,485.606C1380.24,485.606 1328.57,466.929 1281.25,429.575C1233.94,392.221 1190.36,343.037 1150.51,282.025L1313.01,156.888C1334.17,207.939 1355.96,244.36 1378.38,266.15C1400.79,287.94 1423.2,298.835 1445.61,298.835C1470.52,298.835 1491.68,290.43 1509.12,273.621C1526.55,256.811 1542.42,234.399 1556.74,206.383C1571.06,178.367 1584.13,146.305 1595.96,110.195C1607.79,74.086 1619.93,37.354 1632.38,0Z" style="fill:rgb(244,227,227);"/>
                    </g>
                </g>
                <g id="Hand" transform="matrix(1,0,0,1,15404,14511.9)">
                    <g id="Hand1" serif:id="Hand" transform="matrix(1,0,0,1,-18689.1,-11964)">
                        <path d="M25253.3,20267C25273.9,20070.5 25262.6,19922.9 25245.9,19823.8C25277,19827.2 25304.5,19833.9 25326.7,19845.5C25339.9,19852.3 25356.2,19847.2 25363.1,19834C25370,19820.8 25364.9,19804.5 25351.7,19797.7C25261.2,19750.5 25116.2,19767.5 24975.9,19784C24856.2,19798.1 24732.4,19812.6 24659,19784.2C24577.5,19752.6 24522.8,19673.4 24469.8,19596.8C24463.4,19587.5 24457.1,19578.2 24450.6,19569.1C24345.1,19418.8 24217,19287 24069.8,19177.3C24060.9,19170.7 24051.8,19164 24042.7,19157.4C23972.9,19106.1 23900.6,19053.2 23869.3,18977.6C23812.2,18839.4 23876.7,18315.8 23918.4,18197.7C23940.9,18133.8 23994,18081.3 24040.8,18035L24592.8,17489.2C24610.1,17472.1 24630.4,17454 24648.7,17455C24679.3,17456.7 24692.4,17507.8 24693.5,17539.6C24698.8,17694 24612.1,17802.5 24511.8,17928.2L24488.2,17957.8C24394.6,18075.3 24288.5,18208.5 24171.3,18299.6C24163.6,18305.7 24159.7,18315.4 24161.2,18325.1C24163.7,18341.1 24166.7,18356.6 24169.7,18372.3C24180.9,18430.4 24192.5,18490.5 24179.6,18583.8C24179.1,18587.3 24179.3,18590.7 24180.1,18593.9C24179.9,18594.7 24179.7,18595.6 24179.4,18596.5C24158.2,18683 24138.1,18764.6 24087.4,18827C24078.1,18838.6 24079.8,18855.6 24091.4,18865C24096.4,18869 24102.4,18871 24108.4,18871C24116.2,18871 24124,18867.6 24129.3,18861C24187.6,18789.2 24210.1,18697.8 24231.8,18609.4C24256.4,18509.3 24279.6,18414.7 24351.3,18355.2C24401.1,18313.9 24470,18295.8 24530.8,18279.8C24576.7,18267.7 24632.4,18251.7 24691.3,18234.8C24854.1,18188.1 25077,18124.2 25144.8,18132.7C25153.4,18133.8 25158.3,18137.6 25161.7,18145.8C25172.9,18172.5 25160.1,18228.2 25135.4,18260.4C25101.2,18305 25042.4,18323.6 24974.8,18341.7C24974.4,18341.8 24974.1,18342 24973.7,18342.2C24863.3,18357.9 24746.6,18382.3 24676.8,18419.8C24554,18485.6 24504.5,18627.1 24475.1,18743C24471.7,18756.5 24468.4,18770 24465.1,18783.7C24439.5,18887.6 24413.1,18995.1 24343.2,19070.3C24333.1,19081.2 24333.7,19098.2 24344.6,19108.4C24355.5,19118.5 24372.6,19117.9 24382.7,19107C24462.2,19021.6 24490.2,18907.1 24517.4,18796.5C24520.7,18783 24524,18769.6 24527.4,18756.3C24554.1,18651.1 24598.1,18523.2 24702.3,18467.3C24784.2,18423.3 24973,18387.9 25207.2,18372.4C25256.2,18369.2 25297.8,18362.8 25334.5,18357.1C25393.5,18348.1 25436.1,18341.5 25455.8,18357.6C25477.8,18375.6 25479.2,18390.5 25478.4,18400.1C25474.5,18443.4 25406.2,18500.1 25344.3,18534.5C25275.6,18572.7 25173.6,18601.3 25075,18629C24928.3,18670.1 24812.4,18702.7 24797.9,18766.6C24788.3,18808.6 24784.3,18855.6 24780.1,18905.3C24774.2,18974.5 24768,19046 24745.8,19098.9C24723.9,19142.6 24706.2,19186.3 24692.2,19226.7C24687.3,19240.8 24694.8,19256.1 24708.9,19261C24722.9,19265.8 24738.3,19258.4 24743.2,19244.3C24782.6,19130.4 24875.2,18928.6 25052.5,18857.3C25140.4,18821.9 25264.7,18780.9 25422,18728.9L25427.5,18727C25456.6,18717.4 25481.4,18718.5 25490.8,18729.7C25499.9,18740.7 25500.6,18769.1 25475,18815.7C25412.1,18930.4 25288.3,19017.3 25096.6,19081.3C25083.9,19085.5 25076.3,19098.4 25078.6,19111.5C25095.6,19209.2 25076.4,19314.2 25025.9,19399.5C25021,19407.6 25020.8,19417.8 25025.4,19426.1C25029.9,19434.5 25038.5,19439.8 25048,19440.2L25167.8,19444.8C25168.2,19444.8 25168.5,19444.8 25168.9,19444.8C25183.3,19444.8 25195.2,19433.4 25195.8,19418.9C25196.4,19404 25184.8,19391.5 25169.9,19390.9L25092.9,19387.9C25131,19306.8 25146,19214 25135.1,19125.1C25328.2,19057.2 25454.9,18964.3 25522.3,18841.6C25567.8,18758.6 25548.1,18714.3 25532.2,18695.2C25507.5,18665.5 25463.2,18658.4 25410.6,18675.9L25405.1,18677.7C25246.8,18730 25121.9,18771.3 25032.4,18807.2C24948.1,18841.2 24881.3,18899.3 24828.6,18966.6C24830.5,18947.7 24832.2,18928.7 24833.8,18909.9C24837.9,18862.1 24841.7,18816.9 24850.5,18778.5C24857.9,18745.9 24991.8,18708.3 25089.6,18680.9C25191.2,18652.4 25296.3,18622.9 25370.5,18581.6C25394.7,18568.2 25510.2,18500.2 25529.6,18419.3C25725.3,18510 25898.7,18753.9 25935.6,18991.1C25862.9,18950.4 25778.6,18921.2 25685.4,18892.1C25671.2,18887.6 25656.1,18895.5 25651.7,18909.7C25647.2,18923.9 25655.1,18939.1 25669.3,18943.5C25861.2,19003.6 26003.3,19058.2 26084.5,19213.9C26167.3,19372.8 26186.1,19563.8 26202.7,19732.4L26230.5,20014.1C26224.3,20014.3 26218.1,20016.2 26212.4,20019.9L26212.4,20019.9C26204,20025.2 26196.8,20034.3 26191.7,20045.6C26187.6,20054.9 26184.8,20065.5 26183.8,20076.7C26173.5,20069.3 26160.8,20067.8 26149,20072.9C26148.7,20073 26148.5,20073.2 26148.2,20073.3C26139.1,20077.5 26130.9,20085.5 26124.5,20095.9C26118.9,20105 26114.7,20116 26112.5,20127.8C26103.4,20118.6 26091.3,20114.7 26079,20117.4L26078.5,20117.4C26078.4,20117.5 26077.6,20117.7 26076.2,20118.1C26066.6,20120.9 26057.3,20127.8 26049.7,20137.4C26043.5,20145.2 26038.3,20154.7 26034.9,20165.2C26026.5,20155.4 26014.7,20150.5 26002.1,20152.1L26002.2,20152.1C26002.2,20152.1 26001.9,20152.1 26001.4,20152.2L26000.9,20152.3C25995.6,20153.1 25990.4,20155 25985.5,20157.8L25985.5,20157.8C25972.5,20165.2 25960.5,20179.4 25953.1,20196.5C25945.6,20184.5 25933.4,20177.6 25919.2,20178C25918.9,20178 25918.6,20178 25918.3,20178.1C25899.2,20179.1 25878.8,20194.1 25866.4,20215.4C25860.3,20204.7 25850.2,20197.5 25837.8,20195.7C25837.1,20195.5 25836.3,20195.4 25835.5,20195.3L25834.9,20195.2C25834.7,20195.2 25833.2,20195.3 25832.4,20195.3C25811.9,20195 25789.4,20209.6 25775.8,20231.3C25769.8,20217.9 25757.8,20208.8 25742.4,20207.4C25742.1,20207.3 25741.7,20207.3 25741.4,20207.3C25726.7,20206.2 25711.1,20212.1 25697.9,20222.9L25697.9,20222.9C25692.3,20227.4 25687.2,20232.8 25682.8,20238.8C25677.4,20227.1 25667.2,20218.7 25653.6,20216L25652.1,20215.7C25652,20215.6 25651,20215.5 25649.3,20215.3C25627,20212.9 25601.9,20226.4 25586.4,20247.9C25581.3,20234.8 25570.3,20225.4 25555.2,20222.6L25554.1,20222.4C25553.9,20222.3 25552.9,20222.2 25551.2,20222C25528.7,20219.7 25503.5,20232.9 25487.9,20253.8C25487.6,20253.2 25487.3,20252.6 25487,20252C25480.6,20239.7 25468.5,20231.4 25452.1,20230.3L25452.1,20230.3C25428.7,20228.7 25403.1,20243 25387.8,20264.9C25387.8,20264.9 25387.8,20264.9 25387.8,20264.9C25387.3,20265.6 25386.8,20266.3 25386.4,20267C25385.7,20265.7 25385.1,20264.4 25384.3,20263.2C25377.2,20251.2 25364.5,20243.5 25347.2,20243.5L25347.2,20243.5C25322.3,20243.5 25296.4,20260.7 25282.2,20284.5C25281.7,20283.8 25281.2,20283 25280.7,20282.3C25274.6,20273.9 25265.3,20268.3 25253.3,20267ZM26261.2,20326L26342,21145.2C25917,21339.1 25435.5,21339 25013.6,21145C25102.5,20932 25162,20742.3 25200.6,20575.7C25204.7,20576.2 25208.7,20575.9 25212.7,20574.8L25212.7,20574.8C25221.6,20572.3 25230.4,20565.9 25237.8,20556.7C25243.5,20549.6 25248.5,20540.7 25252,20531C25260,20541.1 25271.7,20546.5 25284.7,20545.3L25284.7,20545.3C25294.9,20544.4 25305.1,20539.4 25314.2,20531.4C25321.9,20524.5 25328.7,20515.4 25333.8,20504.9C25340.7,20517.4 25352.9,20525.1 25367.6,20525.3C25387.4,20525.5 25408.5,20511.4 25422,20490.3C25428.4,20502.8 25440.1,20511 25455,20512.1L25455,20512.1C25476.4,20513.7 25500.1,20499.9 25514.7,20478.5C25520.4,20492.3 25532.5,20501.9 25548.9,20503.6L25548.9,20503.6C25570.3,20505.9 25594.5,20493.4 25610,20473.1C25615.9,20486.3 25628,20495.4 25644.3,20497.1C25667.5,20499.5 25693.4,20485.5 25709,20463.6C25710.8,20468.1 25713.3,20472.2 25716.5,20475.6L25716.5,20475.6C25723.3,20483.2 25733.1,20488.2 25745.3,20489.1L25745.3,20489.1C25768.7,20490.9 25794,20476.8 25809.3,20455.1C25809.7,20455.8 25810,20456.4 25810.4,20457C25817.3,20469 25829.8,20476.9 25846.7,20477.1L25846.7,20477.1C25871.5,20477.5 25897.7,20460.4 25911.8,20436.4C25912.5,20437.7 25913.2,20438.9 25914,20440.1C25921.7,20451.5 25934.8,20458.4 25952.2,20457.2C25976.9,20455.5 26001.6,20437 26014.6,20412.7C26015,20413.4 26015.5,20414 26016,20414.7C26024.7,20425.4 26038.4,20431 26056.2,20427.9L26056.2,20427.9C26058.4,20427.5 26060.6,20427 26062.9,20426.4C26062.9,20426.4 26062.9,20426.4 26062.9,20426.4C26086.8,20419.3 26107.9,20397.8 26117.2,20372.9C26118.1,20374.1 26119.1,20375.2 26120.2,20376.3C26129.9,20385.8 26144.4,20389.6 26162,20383.9L26162,20383.9C26187.1,20375.8 26208.2,20350.6 26216.1,20323.1C26216.7,20323.6 26217.3,20324.2 26218,20324.7C26228.7,20332.8 26243.5,20334.6 26260.5,20326.4L26260.5,20326.4L26260.5,20326.4C26260.7,20326.3 26261,20326.2 26261.2,20326ZM26260.5,20326.4C26257,20328.1 26254.6,20327.8 26254.4,20327.8C26256.5,20327.8 26258.6,20327.3 26260.5,20326.4ZM25745.3,20489.1C25745.7,20489.2 25746,20489.2 25746.4,20489.2C25746.4,20489.2 25746,20489.2 25745.3,20489.1ZM25716.5,20475.6C25719.1,20478.5 25722.9,20480.2 25726.8,20480.2C25726.8,20480.2 25721.4,20481 25716.5,20475.6ZM25548.9,20503.6C25549.4,20503.7 25549.9,20503.7 25550.4,20503.7C25550.4,20503.7 25549.9,20503.7 25548.9,20503.6ZM25455,20512.1C25455.3,20512.1 25455.7,20512.1 25456,20512.1C25456,20512.1 25455.7,20512.1 25455,20512.1ZM25284.7,20545.3C25284.3,20545.3 25283.8,20545.4 25283.4,20545.4L25284.7,20545.3ZM25953.9,19244.7C25922.7,19235 25894,19272.3 25911.3,19300C25943.4,19351.1 25949.9,19370.4 25962.5,19436.4C25969,19465.3 25966.3,19469.4 25971.3,19482.2C25974.8,19492.5 25985.7,19500.8 25996.5,19501.5C26049.2,19505.1 26035.2,19429.2 26031.2,19395.8C26023.6,19355.6 26008.4,19317 25988.4,19281.4C25979.6,19267.1 25971.7,19249.1 25953.9,19244.7ZM25283.4,20545.4L25283.4,20545.4C25276,20545.4 25283.2,20545.1 25283.4,20545.4ZM24316.9,18313.7C24308.7,18320.6 24301.1,18327.9 24293.9,18335.4C24276,18328.8 24258.9,18320.3 24243,18310C24342,18224.3 24431.5,18115.2 24512.1,18014.2C24600.1,18068.3 24710,18114.3 24817.9,18143C24770.8,18156 24722.8,18169.7 24676.4,18183C24617.8,18199.8 24562.4,18215.7 24517,18227.6C24450.8,18245.1 24375.8,18264.8 24316.9,18313.7ZM24222.4,18360.5C24234.2,18367.6 24246.3,18374.1 24258.9,18379.6C24249.4,18394.2 24240.9,18409.4 24233.5,18425.2C24230.5,18403.2 24226.6,18382.5 24222.7,18362.1C24222.6,18361.6 24222.5,18361.1 24222.4,18360.5ZM25269,18312.2C25248.6,18314.8 25226.9,18317.1 25203.6,18318.6C25188.2,18319.7 25169.8,18321 25149.3,18322.7C25159.7,18313.9 25169.6,18304.4 25178.2,18293.2C25181.6,18288.8 25184.7,18283.9 25187.8,18278.9C25215,18291.1 25241.8,18302.2 25269,18312.2ZM23839.1,17663.6C23869.4,17644.7 23915.5,17666.3 23952.2,17687.4L24182.7,17819L24002.9,17996.7C23985.1,18014.3 23966.6,18032.7 23948.8,18052.4C23890.4,17971.7 23846.4,17879.2 23821.4,17783C23815.4,17759.8 23810.1,17735.1 23812.7,17712.2C23815.1,17690.6 23825,17672.4 23839.1,17663.6Z" style="fill:rgb(244,227,227);"/>
                    </g>
                    <g id="Bracelet---No-stroke" serif:id="Bracelet - No stroke" transform="matrix(18.3878,-1.03891,1.18545,20.9814,6117.61,5564.8)">
                        <path d="M15.199,131.927C15.861,131.883 16.356,132.082 16.63,132.451C16.92,132.842 16.963,133.396 16.757,134.002C15.786,136.849 15.026,139.712 14.575,142.551C14.449,143.34 14.047,144.07 13.535,144.568C13.223,144.871 12.873,145.088 12.519,145.155C11.66,145.318 10.894,144.539 10.885,143.322L10.885,143.322C10.862,140.47 11.23,137.568 11.889,134.657C12.201,133.281 13.694,132.026 15.199,131.927Z" style="fill:rgb(244,227,227);"/>
                        <path d="M15.916,143.758C15.372,143.439 15.095,142.719 15.245,141.853L15.245,141.852C15.73,139.038 16.516,136.203 17.504,133.388C17.967,132.07 19.517,131.015 20.942,131.084C21.575,131.114 22.034,131.369 22.268,131.764C22.517,132.183 22.519,132.74 22.267,133.326C21.092,136.058 20.037,138.836 19.198,141.619C18.965,142.394 18.455,143.071 17.844,143.495C17.466,143.756 17.052,143.921 16.644,143.934L16.643,143.934C16.496,143.938 16.356,143.922 16.227,143.887C16.116,143.858 16.012,143.814 15.916,143.758Z" style="fill:rgb(244,227,227);"/>
                        <path d="M23.899,141.656C23.865,141.706 23.83,141.756 23.794,141.804C23.794,141.805 23.794,141.805 23.794,141.805C23.167,142.661 22.186,143.259 21.278,143.206C20.215,143.144 19.694,142.149 20.063,140.975C20.929,138.213 22.004,135.459 23.19,132.756L23.19,132.755C23.315,132.469 23.494,132.2 23.712,131.96C23.713,131.959 23.713,131.958 23.714,131.958C24.44,131.143 25.59,130.622 26.617,130.734C27.214,130.799 27.642,131.075 27.852,131.477C28.075,131.906 28.055,132.461 27.779,133.041C26.506,135.708 25.292,138.39 24.197,141.093L24.197,141.094C24.141,141.231 24.074,141.365 23.999,141.494C23.993,141.504 23.981,141.525 23.981,141.525C23.954,141.569 23.927,141.613 23.899,141.656Z" style="fill:rgb(244,227,227);"/>
                        <path d="M31.99,130.604C32.17,130.63 32.17,130.631 31.989,130.605C33.174,130.771 33.618,131.829 33.07,132.944C31.771,135.584 30.475,138.226 29.244,140.878C28.683,142.087 27.297,142.955 26.104,142.817L26.104,142.817C25.011,142.692 24.526,141.666 24.997,140.52C26.103,137.828 27.325,135.159 28.601,132.503C29.125,131.412 30.393,130.61 31.574,130.581C31.714,130.578 31.853,130.585 31.989,130.604C31.989,130.604 31.99,130.604 31.99,130.604Z" style="fill:rgb(244,227,227);"/>
                        <path d="M37.323,130.548C37.503,130.574 37.504,130.575 37.323,130.549C38.471,130.715 38.91,131.767 38.381,132.888L38.381,132.888C38.318,133.02 38.255,133.153 38.192,133.285C38.187,133.297 38.181,133.309 38.176,133.321C38.154,133.366 38.132,133.412 38.111,133.458C38.104,133.471 38.098,133.485 38.091,133.498C36.931,135.939 35.728,138.372 34.533,140.804C33.941,142.009 32.471,142.848 31.245,142.671L31.245,142.671C30.101,142.506 29.66,141.457 30.186,140.334C31.426,137.687 32.725,135.049 34.022,132.414C34.562,131.317 35.833,130.523 36.986,130.524C37.1,130.524 37.212,130.532 37.322,130.548C37.322,130.548 37.323,130.548 37.323,130.548Z" style="fill:rgb(244,227,227);"/>
                        <path d="M43.282,133.182C42.305,135.459 41.261,137.724 40.181,139.973C40.061,140.225 39.939,140.477 39.817,140.729L39.817,140.729C39.757,140.853 39.687,140.974 39.609,141.089C39.569,141.149 39.527,141.208 39.482,141.265C39.471,141.279 39.46,141.292 39.449,141.306C39.449,141.306 39.449,141.306 39.449,141.306C38.737,142.192 37.53,142.755 36.474,142.623C36.474,142.623 36.448,142.62 36.435,142.618L36.435,142.618C35.256,142.45 34.814,141.391 35.362,140.277L35.362,140.277C36.659,137.638 37.96,134.998 39.205,132.35L39.205,132.35C39.479,131.767 39.952,131.269 40.5,130.923C40.5,130.923 40.5,130.922 40.501,130.922C41.085,130.55 41.757,130.345 42.376,130.418C42.386,130.42 42.395,130.42 42.404,130.421C43.492,130.566 43.958,131.594 43.477,132.726L43.477,132.726C43.417,132.867 43.357,133.008 43.296,133.149C43.291,133.16 43.287,133.171 43.282,133.182Z" style="fill:rgb(244,227,227);"/>
                        <path d="M47.488,130.099C47.492,130.099 47.494,130.099 47.49,130.099C47.489,130.099 47.438,130.099 47.438,130.099C47.427,130.099 47.416,130.099 47.405,130.098C48.478,130.18 49.007,131.183 48.598,132.347C47.635,135.082 46.528,137.806 45.329,140.508C44.774,141.757 43.246,142.665 41.915,142.508L41.915,142.507C41.469,142.455 41.115,142.284 40.88,142.028L40.88,142.028C40.469,141.584 40.422,140.906 40.766,140.19C40.766,140.19 40.766,140.189 40.766,140.189C40.801,140.115 40.837,140.042 40.872,139.968C42.111,137.382 43.304,134.774 44.401,132.153C44.913,130.928 46.248,130.01 47.406,130.098C47.406,130.098 47.669,130.099 47.488,130.099Z" style="fill:rgb(244,227,227);"/>
                        <path d="M52.174,129.509C53.191,129.531 53.775,130.475 53.471,131.655C52.752,134.45 51.839,137.236 50.787,140.005C50.299,141.29 48.781,142.293 47.399,142.205C46.786,142.166 46.339,141.909 46.112,141.514C45.871,141.094 45.873,140.537 46.131,139.95C47.324,137.23 48.421,134.491 49.369,131.742C49.799,130.495 51.029,129.501 52.148,129.509C52.157,129.51 52.166,129.509 52.174,129.509Z" style="fill:rgb(244,227,227);"/>
                        <path d="M58.183,131.156C57.978,132.521 57.719,133.889 57.405,135.257L57.405,135.257C57.364,135.438 57.322,135.618 57.279,135.799C57.278,135.805 57.255,135.9 57.254,135.905C57,136.961 56.718,138.017 56.411,139.07C56.023,140.4 54.544,141.526 53.115,141.542C52.484,141.548 52.013,141.326 51.759,140.949C51.488,140.547 51.459,139.994 51.682,139.393C52.717,136.601 53.609,133.793 54.301,130.977C54.554,129.944 55.337,129.028 56.184,128.658C56.376,128.574 56.575,128.519 56.776,128.501C56.903,128.489 56.923,128.49 56.776,128.503C57.758,128.414 58.444,129.294 58.277,130.506L58.277,130.506C58.249,130.707 58.22,130.908 58.19,131.109C58.19,131.112 58.185,131.143 58.183,131.156Z" style="fill:rgb(244,227,227);"/>
                        <path d="M61.063,127.066C61.189,127.04 61.189,127.041 61.063,127.067C62.018,126.87 62.795,127.659 62.775,128.874C62.725,131.747 62.433,134.668 61.902,137.602C61.669,138.889 60.439,140.102 59.051,140.389C58.957,140.408 58.862,140.423 58.767,140.433C58.12,140.498 57.621,140.321 57.332,139.967C57.025,139.592 56.952,139.043 57.126,138.429C57.458,137.255 57.758,136.079 58.022,134.902C58.405,133.197 58.705,131.49 58.921,129.79L58.921,129.79C59.022,128.99 59.419,128.233 59.953,127.709C60.284,127.384 60.666,127.148 61.063,127.066Z" style="fill:rgb(244,227,227);"/>
                        <path d="M62.645,137.509C62.621,137.309 62.628,137.092 62.667,136.863L62.667,136.863C63.164,133.902 63.419,130.956 63.429,128.063C63.432,127.257 63.732,126.459 64.193,125.875C64.48,125.511 64.828,125.231 65.21,125.101C65.218,125.099 65.226,125.096 65.233,125.093C66.131,124.804 66.981,125.481 67.115,126.669C67.435,129.518 67.507,132.45 67.334,135.427L67.334,135.427C67.323,135.628 67.288,135.829 67.232,136.029C67.228,136.043 67.223,136.058 67.219,136.073C67.218,136.076 67.217,136.08 67.217,136.08C66.863,137.261 65.783,138.354 64.536,138.641C63.891,138.79 63.37,138.679 63.041,138.362C62.822,138.153 62.69,137.864 62.647,137.524C62.647,137.524 62.645,137.513 62.645,137.509Z" style="fill:rgb(244,227,227);"/>
                        <path d="M67.931,135.272C67.893,135.091 67.879,134.892 67.889,134.68L67.889,134.68C68.032,131.679 67.926,128.727 67.57,125.86C67.471,125.06 67.664,124.232 68.042,123.595C68.278,123.197 68.584,122.874 68.943,122.697C69.784,122.282 70.724,122.833 71.018,123.998C71.718,126.779 72.164,129.676 72.36,132.651C72.452,134.062 71.386,135.681 69.95,136.204L69.95,136.204C69.924,136.213 69.898,136.222 69.873,136.231C69.845,136.24 69.817,136.249 69.79,136.257C69.236,136.422 68.766,136.365 68.433,136.115C68.193,135.935 68.029,135.668 67.947,135.339C67.941,135.317 67.936,135.294 67.931,135.272Z" style="fill:rgb(244,227,227);"/>
                    </g>
                </g>
                <g id="Permanent-Jewelry" serif:id="Permanent Jewelry" transform="matrix(0.720919,0,0,0.720919,5361.86,12995.1)">
                    <path d="M16742.5,15267.4C16801.5,15267.4 16850.6,15279.2 16889.6,15302.7C16928.6,15326.1 16957.9,15355.3 16977.6,15390.2C16997.3,15425 17007,15462.9 17006.6,15503.8C17006.2,15544.7 16996.4,15582.5 16977.1,15617.4C16957.8,15652.2 16928.4,15681.4 16889,15704.9C16849.6,15728.3 16800.8,15740.1 16742.5,15740.1L16632.2,15740.1L16632.2,15995.7L16641.3,16062.8L16509.5,16062.8L16518.6,15995.7L16518.6,15334.5L16509.5,15267.4L16742.5,15267.4ZM16632.2,15626.5L16741.3,15626.5C16772.4,15626.5 16798.3,15620.4 16819.1,15608.3C16840,15596.2 16855.5,15581 16865.7,15562.8C16876,15544.7 16881.1,15525 16881.1,15503.8C16881.1,15482.6 16876,15462.9 16865.7,15444.7C16855.5,15426.5 16840,15411.4 16819.1,15399.2C16798.3,15387.1 16772.4,15381.1 16741.3,15381.1L16632.2,15381.1L16632.2,15626.5Z" style="fill:rgb(244,227,227);fill-rule:nonzero;"/>
                    <path d="M17178.7,15894.6C17192.4,15914.3 17209.6,15930.2 17230.4,15942.3C17251.3,15954.4 17276.1,15960.5 17304.9,15960.5C17329.8,15960.5 17352,15954.6 17371.3,15942.9C17390.6,15931.2 17406.7,15912.4 17419.6,15886.7L17507.1,15959.4C17457.1,16035.9 17387.4,16074.1 17298,16074.1C17251.8,16074.1 17211.1,16065.2 17175.9,16047.4C17140.7,16029.6 17111.5,16006.3 17088.4,15977.5C17065.3,15948.8 17047.9,15916.2 17036.2,15879.8C17024.4,15843.5 17018.5,15806.4 17018.5,15768.5C17018.5,15732.1 17024,15696.9 17035,15662.8C17046,15628.7 17062.7,15598.4 17085,15571.9C17107.4,15545.4 17135.2,15524 17168.5,15507.7C17201.8,15491.5 17240.5,15483.3 17284.4,15483.3C17313.2,15483.3 17341,15487.9 17367.9,15497C17394.8,15506 17418.8,15519.3 17440.1,15536.7C17461.3,15554.1 17478.1,15575.5 17490.6,15600.9C17503.1,15626.3 17509.4,15655.3 17509.4,15687.8C17509.4,15712.1 17501,15734.8 17484.4,15756C17467.7,15777.2 17435.5,15796.9 17387.8,15815.1L17178.7,15894.6ZM17310.5,15735.5C17331,15728.7 17346.3,15722.3 17356.5,15716.2C17366.8,15710.2 17374,15704.7 17378.1,15699.8C17382.3,15694.8 17384.4,15690.3 17384.4,15686.1L17384.4,15675.3C17384.4,15649.6 17375.3,15629.9 17357.1,15616.2C17338.9,15602.6 17317.4,15595.8 17292.4,15595.8C17267.4,15595.8 17245.6,15600.9 17227,15611.1C17208.5,15621.4 17192.9,15634.6 17180.4,15650.9C17167.9,15667.2 17158.7,15685.9 17152.6,15707.1C17146.5,15728.3 17143.5,15750.3 17143.5,15773L17143.5,15783.3C17143.5,15786.3 17143.9,15789.7 17144.7,15793.5L17310.5,15735.5Z" style="fill:rgb(244,227,227);fill-rule:nonzero;"/>
                    <path d="M17560.5,16062.8L17569.6,15995.7L17569.6,15595.8C17569.6,15582.9 17569.2,15571.4 17568.4,15561.1C17567.7,15550.9 17565,15540.1 17560.5,15528.8L17683.2,15472L17683.2,15601.5C17699.1,15568.1 17719.7,15540.1 17745.1,15517.4C17770.5,15494.7 17802.5,15483.3 17841.1,15483.3C17870.7,15483.3 17899.4,15492.6 17927.5,15511.2C17955.5,15529.7 17979.4,15558.7 17999,15598.1L17900.2,15674.2C17888.8,15640.9 17876.2,15617.2 17862.1,15603.2C17848.1,15589.2 17833.5,15582.2 17818.4,15582.2C17803.3,15582.2 17788.7,15589.4 17774.7,15603.7C17760.6,15618.1 17747.8,15636.5 17736,15658.9C17724.3,15681.2 17713.9,15705.4 17704.8,15731.6C17695.7,15757.7 17688.5,15782.1 17683.2,15804.9L17683.2,15995.7L17692.3,16062.8L17560.5,16062.8Z" style="fill:rgb(244,227,227);fill-rule:nonzero;"/>
                    <path d="M18277.4,16062.8L18284.2,15995.7L18284.2,15751.5C18284.2,15690.9 18278.4,15648.2 18266.6,15623.6C18254.9,15599 18240.7,15586.7 18224,15586.7C18208.9,15586.7 18196,15594.7 18185.4,15610.6C18174.8,15626.5 18165.7,15646.7 18158.1,15671.4C18150.5,15696 18144.1,15722.7 18138.8,15751.5C18133.5,15780.2 18129,15807.5 18125.2,15833.3L18125.2,15995.7L18134.3,16062.8L18002.5,16062.8L18011.5,15995.7L18011.5,15595.8C18011.5,15582.9 18011.2,15571.4 18010.4,15561.1C18009.7,15550.9 18007,15540.1 18002.5,15528.8L18125.2,15472L18125.2,15590.1C18143.3,15551.5 18164.2,15524 18187.7,15507.7C18211.1,15491.5 18235,15483.3 18259.2,15483.3C18276.7,15483.3 18292.6,15486.7 18307,15493.5C18321.3,15500.4 18333.8,15509.6 18344.4,15521.4C18355,15533.1 18364.1,15546.4 18371.7,15561.1C18379.3,15575.9 18385.3,15591.3 18389.9,15607.2C18408.1,15562.5 18429.8,15530.7 18455.2,15511.7C18480.6,15492.8 18506.2,15483.3 18531.9,15483.3C18554.6,15483.3 18574.7,15489 18592.1,15500.4C18609.5,15511.7 18624.1,15526.3 18635.9,15544.1C18647.6,15561.9 18656.3,15581.4 18662,15602.6C18667.7,15623.8 18670.5,15644.3 18670.5,15664L18670.5,15995.7L18677.3,16062.8L18550.1,16062.8L18556.9,15995.7L18556.9,15751.5C18556.9,15690.9 18551,15648.2 18539.3,15623.6C18527.6,15599 18513.4,15586.7 18496.7,15586.7C18481.5,15586.7 18468.7,15594.7 18458.1,15610.6C18447.5,15626.5 18438.4,15646.5 18430.8,15670.8C18423.2,15695 18416.8,15721.5 18411.5,15750.3C18406.2,15779.1 18401.6,15806.4 18397.8,15832.1L18397.8,15995.7L18404.7,16062.8L18277.4,16062.8Z" style="fill:rgb(244,227,227);fill-rule:nonzero;"/>
                    <path d="M19006.8,16023C18984.9,16040.4 18961.2,16053.3 18935.8,16061.6C18910.4,16070 18885.3,16074.1 18860.3,16074.1C18830,16074.1 18803.5,16069 18780.7,16058.8C18758,16048.6 18739.3,16034.9 18724.5,16017.9C18709.7,16000.8 18698.7,15981.1 18691.5,15958.8C18684.3,15936.5 18680.7,15913.5 18680.7,15890.1C18680.7,15865.1 18685.1,15840.3 18693.8,15815.6C18702.5,15791 18715.4,15769.1 18732.4,15749.7C18749.5,15730.4 18770.9,15714.9 18796.6,15703.2C18822.4,15691.4 18851.9,15685.6 18885.3,15685.6C18906.5,15685.6 18927.7,15688.8 18948.9,15695.2C18970.1,15701.6 18989.4,15710.9 19006.8,15723C19006.1,15701.1 19002.7,15682.3 18996.6,15666.8C18990.5,15651.3 18982.4,15638.2 18972.2,15627.6C18961.9,15617 18950.4,15609.2 18937.5,15604.3C18924.6,15599.4 18911.4,15596.9 18897.8,15596.9C18878.1,15596.9 18858.7,15602.8 18839.8,15614.5C18820.9,15626.3 18805.7,15644.3 18794.4,15668.5L18704.6,15599.2C18731.9,15558.3 18763.3,15528.8 18798.9,15510.6C18834.5,15492.4 18870.5,15483.3 18906.8,15483.3C18934.9,15483.3 18961.8,15488.2 18987.5,15498.1C19013.3,15507.9 19036,15521.8 19055.7,15539.6C19075.4,15557.4 19091.1,15578.6 19102.8,15603.2C19114.6,15627.8 19120.4,15654.9 19120.4,15684.4L19120.4,15995.7L19129.5,16062.8L19006.8,16062.8L19006.8,16023ZM19006.8,15856C18997,15836.3 18981.3,15820 18959.7,15807.1C18938.1,15794.2 18917.1,15787.8 18896.6,15787.8C18882.2,15787.8 18869.4,15790.5 18858,15795.8C18846.6,15801.1 18837.2,15808.3 18829.6,15817.3C18822,15826.4 18816.1,15836.9 18812,15848.6C18807.8,15860.3 18805.7,15872.3 18805.7,15884.4C18805.7,15912.4 18814.2,15934.6 18831.3,15950.8C18848.3,15967.1 18870.9,15975.3 18898.9,15975.3C18918.6,15975.3 18938.5,15969.6 18958.5,15958.2C18978.6,15946.9 18994.7,15929.8 19006.8,15907.1L19006.8,15856Z" style="fill:rgb(244,227,227);fill-rule:nonzero;"/>
                    <path d="M19197.7,16062.8L19206.8,15995.7L19206.8,15595.8C19206.8,15582.9 19206.4,15571.4 19205.7,15561.1C19204.9,15550.9 19202.2,15540.1 19197.7,15528.8L19320.4,15472L19320.4,15585.6C19340.1,15552.2 19362.4,15526.9 19387.4,15509.4C19412.4,15492 19440.1,15483.3 19470.4,15483.3C19494.6,15483.3 19517,15488.2 19537.4,15498.1C19557.9,15507.9 19575.7,15522.7 19590.8,15542.4C19606,15562.1 19617.7,15587.1 19626,15617.4C19634.4,15647.7 19638.5,15682.9 19638.5,15723L19638.5,15995.7L19647.6,16062.8L19515.8,16062.8L19524.9,15995.7L19524.9,15718.5C19524.9,15674.6 19517.3,15641.1 19502.2,15618C19487,15594.8 19468.5,15583.3 19446.5,15583.3C19430.6,15583.3 19416.4,15588.4 19403.9,15598.6C19391.4,15608.9 19380.1,15622.3 19369.8,15639C19359.6,15655.6 19350.5,15674.6 19342.6,15695.8C19334.6,15717 19327.2,15738.2 19320.4,15759.4L19320.4,15995.7L19329.5,16062.8L19197.7,16062.8Z" style="fill:rgb(244,227,227);fill-rule:nonzero;"/>
                    <path d="M19858.9,15894.6C19872.6,15914.3 19889.8,15930.2 19910.6,15942.3C19931.5,15954.4 19956.3,15960.5 19985.1,15960.5C20010.1,15960.5 20032.2,15954.6 20051.5,15942.9C20070.8,15931.2 20086.9,15912.4 20099.8,15886.7L20187.3,15959.4C20137.3,16035.9 20067.6,16074.1 19978.2,16074.1C19932,16074.1 19891.3,16065.2 19856.1,16047.4C19820.9,16029.6 19791.7,16006.3 19768.6,15977.5C19745.5,15948.8 19728.1,15916.2 19716.4,15879.8C19704.6,15843.5 19698.7,15806.4 19698.7,15768.5C19698.7,15732.1 19704.2,15696.9 19715.2,15662.8C19726.2,15628.7 19742.9,15598.4 19765.2,15571.9C19787.6,15545.4 19815.4,15524 19848.7,15507.7C19882,15491.5 19920.7,15483.3 19964.6,15483.3C19993.4,15483.3 20021.2,15487.9 20048.1,15497C20075,15506 20099.1,15519.3 20120.3,15536.7C20141.5,15554.1 20158.3,15575.5 20170.8,15600.9C20183.3,15626.3 20189.6,15655.3 20189.6,15687.8C20189.6,15712.1 20181.2,15734.8 20164.6,15756C20147.9,15777.2 20115.7,15796.9 20068,15815.1L19858.9,15894.6ZM19990.7,15735.5C20011.2,15728.7 20026.5,15722.3 20036.8,15716.2C20047,15710.2 20054.2,15704.7 20058.3,15699.8C20062.5,15694.8 20064.6,15690.3 20064.6,15686.1L20064.6,15675.3C20064.6,15649.6 20055.5,15629.9 20037.3,15616.2C20019.1,15602.6 19997.6,15595.8 19972.6,15595.8C19947.6,15595.8 19925.8,15600.9 19907.2,15611.1C19888.7,15621.4 19873.1,15634.6 19860.7,15650.9C19848.2,15667.2 19838.9,15685.9 19832.8,15707.1C19826.8,15728.3 19823.7,15750.3 19823.7,15773L19823.7,15783.3C19823.7,15786.3 19824.1,15789.7 19824.9,15793.5L19990.7,15735.5Z" style="fill:rgb(244,227,227);fill-rule:nonzero;"/>
                    <path d="M20240.7,16062.8L20249.8,15995.7L20249.8,15595.8C20249.8,15582.9 20249.4,15571.4 20248.7,15561.1C20247.9,15550.9 20245.2,15540.1 20240.7,15528.8L20363.4,15472L20363.4,15585.6C20383.1,15552.2 20405.4,15526.9 20430.4,15509.4C20455.4,15492 20483.1,15483.3 20513.4,15483.3C20537.6,15483.3 20560,15488.2 20580.4,15498.1C20600.9,15507.9 20618.7,15522.7 20633.8,15542.4C20649,15562.1 20660.7,15587.1 20669,15617.4C20677.4,15647.7 20681.5,15682.9 20681.5,15723L20681.5,15995.7L20690.6,16062.8L20558.8,16062.8L20567.9,15995.7L20567.9,15718.5C20567.9,15674.6 20560.3,15641.1 20545.2,15618C20530,15594.8 20511.5,15583.3 20489.5,15583.3C20473.6,15583.3 20459.4,15588.4 20446.9,15598.6C20434.4,15608.9 20423.1,15622.3 20412.8,15639C20402.6,15655.6 20393.5,15674.6 20385.6,15695.8C20377.6,15717 20370.2,15738.2 20363.4,15759.4L20363.4,15995.7L20372.5,16062.8L20240.7,16062.8Z" style="fill:rgb(244,227,227);fill-rule:nonzero;"/>
                    <path d="M20736.1,15494.7C20752,15494.7 20764.5,15493.9 20773.6,15492.4C20782.6,15490.9 20789.5,15488.2 20794,15484.5C20798.6,15480.7 20801.4,15475.6 20802.5,15469.1C20803.7,15462.7 20804.2,15454.2 20804.2,15443.6L20804.2,15411.7C20804.2,15395.8 20803.9,15380.1 20803.1,15364.6C20802.3,15349.1 20799.7,15335.6 20795.1,15324.3L20917.8,15267.4L20917.8,15494.7L21088.3,15494.7L21088.3,15596.9L20917.8,15596.9L20917.8,15852.6C20917.8,15884.4 20921.8,15911.5 20929.8,15933.8C20937.7,15956.1 20951.6,15967.3 20971.2,15967.3C20981.1,15967.3 20989.6,15964.9 20996.8,15959.9C21004,15955 21010.3,15948.8 21015.6,15941.2C21020.9,15933.6 21025.8,15925.5 21030.3,15916.8C21034.9,15908.1 21039,15900.3 21042.8,15893.5L21130.3,15966.2C21107.6,16002.5 21083.4,16029.6 21057.6,16047.4C21031.8,16065.2 21002.3,16074.1 20969,16074.1C20950,16074.1 20930.7,16070.5 20911,16063.3C20891.3,16056.1 20873.5,16044.6 20857.6,16028.7C20841.7,16012.8 20828.9,15992.3 20819,15967.3C20809.2,15942.3 20804.2,15912 20804.2,15876.4L20804.2,15648.1C20804.2,15637.5 20803.7,15628.9 20802.5,15622.5C20801.4,15616.1 20798.6,15610.9 20794,15607.2C20789.5,15603.4 20782.6,15600.7 20773.6,15599.2C20764.5,15597.7 20752,15596.9 20736.1,15596.9L20736.1,15494.7Z" style="fill:rgb(244,227,227);fill-rule:nonzero;"/>
                    <path d="M21664.3,15961.6C21708.2,15961.6 21743.1,15948.8 21768.8,15923C21794.6,15897.3 21807.5,15863.2 21807.5,15820.8L21807.5,15334.5L21798.4,15267.4L21930.2,15267.4L21921.1,15334.5L21921.1,15821.9C21921.1,15859.8 21914.8,15894.2 21902.3,15925.3C21889.8,15956.3 21872.2,15983 21849.5,16005.4C21826.8,16027.7 21799.5,16045 21767.7,16057.1C21735.9,16069.2 21701,16075.3 21663.2,16075.3C21619.2,16075.3 21577.6,16065.6 21538.2,16046.3C21498.8,16027 21467,15998.4 21442.8,15960.5L21530.2,15887.8C21543.1,15912 21561.3,15930.4 21584.8,15942.9C21608.3,15955.4 21634.8,15961.6 21664.3,15961.6Z" style="fill:rgb(244,227,227);fill-rule:nonzero;"/>
                    <path d="M22124.5,15894.6C22138.1,15914.3 22155.3,15930.2 22176.1,15942.3C22197,15954.4 22221.8,15960.5 22250.6,15960.5C22275.6,15960.5 22297.7,15954.6 22317,15942.9C22336.3,15931.2 22352.4,15912.4 22365.3,15886.7L22452.8,15959.4C22402.8,16035.9 22333.1,16074.1 22243.8,16074.1C22197.5,16074.1 22156.8,16065.2 22121.6,16047.4C22086.4,16029.6 22057.2,16006.3 22034.1,15977.5C22011,15948.8 21993.6,15916.2 21981.9,15879.8C21970.1,15843.5 21964.3,15806.4 21964.3,15768.5C21964.3,15732.1 21969.7,15696.9 21980.7,15662.8C21991.7,15628.7 22008.4,15598.4 22030.7,15571.9C22053.1,15545.4 22080.9,15524 22114.2,15507.7C22147.6,15491.5 22186.2,15483.3 22230.1,15483.3C22258.9,15483.3 22286.7,15487.9 22313.6,15497C22340.5,15506 22364.6,15519.3 22385.8,15536.7C22407,15554.1 22423.8,15575.5 22436.3,15600.9C22448.8,15626.3 22455.1,15655.3 22455.1,15687.8C22455.1,15712.1 22446.7,15734.8 22430.1,15756C22413.4,15777.2 22381.2,15796.9 22333.5,15815.1L22124.5,15894.6ZM22256.2,15735.5C22276.7,15728.7 22292,15722.3 22302.3,15716.2C22312.5,15710.2 22319.7,15704.7 22323.9,15699.8C22328,15694.8 22330.1,15690.3 22330.1,15686.1L22330.1,15675.3C22330.1,15649.6 22321,15629.9 22302.8,15616.2C22284.7,15602.6 22263.1,15595.8 22238.1,15595.8C22213.1,15595.8 22191.3,15600.9 22172.7,15611.1C22154.2,15621.4 22138.7,15634.6 22126.2,15650.9C22113.7,15667.2 22104.4,15685.9 22098.3,15707.1C22092.3,15728.3 22089.2,15750.3 22089.2,15773L22089.2,15783.3C22089.2,15786.3 22089.6,15789.7 22090.4,15793.5L22256.2,15735.5Z" style="fill:rgb(244,227,227);fill-rule:nonzero;"/>
                    <path d="M22602.8,15561.7L22670.9,15848L22738,15573.1C22740.3,15564.7 22741.4,15557.9 22741.4,15552.6L22730,15506L22855,15506L22843.6,15552.6C22843.6,15557.9 22844.8,15564.7 22847.1,15573.1L22914.1,15848L22982.3,15561.7C22986,15544.3 22986.8,15530.3 22984.5,15519.7C22982.3,15509.1 22979.6,15500.7 22976.6,15494.7L23101.6,15494.7L22966.3,16062.8L22863,16062.8L22792.5,15767.4L22722.1,16062.8L22618.7,16062.8L22483.5,15494.7L22608.5,15494.7C22605.4,15500.7 22602.8,15509.1 22600.5,15519.7C22598.2,15530.3 22599,15544.3 22602.8,15561.7Z" style="fill:rgb(244,227,227);fill-rule:nonzero;"/>
                    <path d="M23267.4,15894.6C23281.1,15914.3 23298.3,15930.2 23319.1,15942.3C23340,15954.4 23364.8,15960.5 23393.5,15960.5C23418.5,15960.5 23440.7,15954.6 23460,15942.9C23479.3,15931.2 23495.4,15912.4 23508.3,15886.7L23595.8,15959.4C23545.8,16035.9 23476.1,16074.1 23386.7,16074.1C23340.5,16074.1 23299.8,16065.2 23264.6,16047.4C23229.4,16029.6 23200.2,16006.3 23177.1,15977.5C23154,15948.8 23136.6,15916.2 23124.8,15879.8C23113.1,15843.5 23107.2,15806.4 23107.2,15768.5C23107.2,15732.1 23112.7,15696.9 23123.7,15662.8C23134.7,15628.7 23151.4,15598.4 23173.7,15571.9C23196,15545.4 23223.9,15524 23257.2,15507.7C23290.5,15491.5 23329.2,15483.3 23373.1,15483.3C23401.9,15483.3 23429.7,15487.9 23456.6,15497C23483.5,15506 23507.5,15519.3 23528.7,15536.7C23550,15554.1 23566.8,15575.5 23579.3,15600.9C23591.8,15626.3 23598.1,15655.3 23598.1,15687.8C23598.1,15712.1 23589.7,15734.8 23573.1,15756C23556.4,15777.2 23524.2,15796.9 23476.5,15815.1L23267.4,15894.6ZM23399.2,15735.5C23419.7,15728.7 23435,15722.3 23445.2,15716.2C23455.5,15710.2 23462.7,15704.7 23466.8,15699.8C23471,15694.8 23473.1,15690.3 23473.1,15686.1L23473.1,15675.3C23473.1,15649.6 23464,15629.9 23445.8,15616.2C23427.6,15602.6 23406,15595.8 23381,15595.8C23356.1,15595.8 23334.3,15600.9 23315.7,15611.1C23297.2,15621.4 23281.6,15634.6 23269.1,15650.9C23256.6,15667.2 23247.4,15685.9 23241.3,15707.1C23235.2,15728.3 23232.2,15750.3 23232.2,15773L23232.2,15783.3C23232.2,15786.3 23232.6,15789.7 23233.3,15793.5L23399.2,15735.5Z" style="fill:rgb(244,227,227);fill-rule:nonzero;"/>
                    <path d="M23649.2,16062.8L23658.3,15995.7L23658.3,15334.5C23658.3,15321.6 23657.9,15310.1 23657.1,15299.8C23656.4,15289.6 23653.7,15278.8 23649.2,15267.4L23771.9,15210.6L23771.9,15995.7L23781,16062.8L23649.2,16062.8Z" style="fill:rgb(244,227,227);fill-rule:nonzero;"/>
                    <path d="M23849.1,16062.8L23858.2,15995.7L23858.2,15595.8C23858.2,15582.9 23857.9,15571.4 23857.1,15561.1C23856.3,15550.9 23853.7,15540.1 23849.1,15528.8L23971.9,15472L23971.9,15601.5C23987.8,15568.1 24008.4,15540.1 24033.8,15517.4C24059.1,15494.7 24091.1,15483.3 24129.8,15483.3C24159.3,15483.3 24188.1,15492.6 24216.1,15511.2C24244.2,15529.7 24268,15558.7 24287.7,15598.1L24188.9,15674.2C24177.5,15640.9 24164.8,15617.2 24150.8,15603.2C24136.8,15589.2 24122.2,15582.2 24107.1,15582.2C24091.9,15582.2 24077.3,15589.4 24063.3,15603.7C24049.3,15618.1 24036.4,15636.5 24024.7,15658.9C24012.9,15681.2 24002.5,15705.4 23993.4,15731.6C23984.4,15757.7 23977.2,15782.1 23971.9,15804.9L23971.9,15995.7L23980.9,16062.8L23849.1,16062.8Z" style="fill:rgb(244,227,227);fill-rule:nonzero;"/>
                    <path d="M24463.8,16062.8L24268.4,15494.7L24411.5,15494.7C24407.8,15500.7 24406.2,15510.2 24407,15523.1C24407.8,15536 24410.4,15548.8 24415,15561.7L24524,15883.2L24633.1,15561.7C24636.9,15548.8 24639.3,15536 24640.5,15523.1C24641.6,15510.2 24640.3,15500.7 24636.5,15494.7L24766,15494.7L24575.2,16062.8C24564.5,16094.6 24553.9,16127.9 24543.3,16162.7C24532.7,16197.6 24519.3,16229.6 24503,16258.7C24486.7,16287.9 24466.3,16311.8 24441.7,16330.3C24417,16348.9 24384.7,16358.2 24344.5,16358.2C24310.4,16358.2 24279,16346.8 24250.2,16324.1C24221.4,16301.4 24194.9,16271.4 24170.7,16234.3L24269.5,16158.2C24282.4,16189.3 24295.7,16211.4 24309.3,16224.7C24322.9,16237.9 24336.6,16244.5 24350.2,16244.5C24365.3,16244.5 24378.2,16239.4 24388.8,16229.2C24399.4,16219 24409.1,16205.3 24417.8,16188.3C24426.5,16171.3 24434.5,16151.8 24441.7,16129.8C24448.9,16107.8 24456.2,16085.5 24463.8,16062.8Z" style="fill:rgb(244,227,227);fill-rule:nonzero;"/>
                </g>
                <g id="Stars" transform="matrix(1.09319,0,0,1.09319,-1784.23,-2099.21)">
                    <g transform="matrix(2.94634,0,0,2.94634,18354.1,21586.8)">
                        <path d="M0,127.456C0.231,127.488 0.458,127.503 0.686,127.503C3.023,127.503 5.077,125.813 5.468,123.441C10.409,93.427 29.982,65.581 56.546,50.771C58.549,49.653 59.497,47.287 58.817,45.095C58.142,42.906 55.99,41.462 53.738,41.702C32.234,43.654 10.757,25.967 8.586,4.521C8.353,2.215 6.52,0.395 4.214,0.18C1.902,-0.047 -0.234,1.412 -0.894,3.63C-8.125,28.027 -27.382,48.825 -51.15,57.914C-53.068,58.65 -54.319,60.514 -54.268,62.57C-54.215,64.624 -52.875,66.424 -50.92,67.059C-18.799,77.531 -1.311,98.1 -4.138,122.083C-4.448,124.701 -2.609,127.086 0,127.456" style="fill:rgb(244,227,227);"/>
                    </g>
                    <g transform="matrix(1.91157,0,0,1.91157,18081.3,21854.5)">
                        <path d="M0,127.456C0.231,127.488 0.458,127.503 0.686,127.503C3.023,127.503 5.077,125.813 5.468,123.441C10.409,93.427 29.982,65.581 56.546,50.771C58.549,49.653 59.497,47.287 58.817,45.095C58.142,42.906 55.99,41.462 53.738,41.702C32.234,43.654 10.757,25.967 8.586,4.521C8.353,2.215 6.52,0.395 4.214,0.18C1.902,-0.047 -0.234,1.412 -0.894,3.63C-8.125,28.027 -27.382,48.825 -51.15,57.914C-53.068,58.65 -54.319,60.514 -54.268,62.57C-54.215,64.624 -52.875,66.424 -50.92,67.059C-18.799,77.531 -1.311,98.1 -4.138,122.083C-4.448,124.701 -2.609,127.086 0,127.456" style="fill:rgb(244,227,227);"/>
                    </g>
                    <g transform="matrix(1.34508,0,0,1.34508,18006.5,21633.2)">
                        <path d="M0,127.456C0.231,127.488 0.458,127.503 0.686,127.503C3.023,127.503 5.077,125.813 5.468,123.441C10.409,93.427 29.982,65.581 56.546,50.771C58.549,49.653 59.497,47.287 58.817,45.095C58.142,42.906 55.99,41.462 53.738,41.702C32.234,43.654 10.757,25.967 8.586,4.521C8.353,2.215 6.52,0.395 4.214,0.18C1.902,-0.047 -0.234,1.412 -0.894,3.63C-8.125,28.027 -27.382,48.825 -51.15,57.914C-53.068,58.65 -54.319,60.514 -54.268,62.57C-54.215,64.624 -52.875,66.424 -50.92,67.059C-18.799,77.531 -1.311,98.1 -4.138,122.083C-4.448,124.701 -2.609,127.086 0,127.456" style="fill:rgb(244,227,227);"/>
                    </g>
                </g>
            </g>
        </g>
    </g>
</svg>
